# xmcd
#
# Track frame offsets:
#	150
#	19715
#	39446
#	57553
#	70549
#	88358
#	107101
#	122864
#	140252
#	158970
#	179823
#	195599
#	211422
#	228009
#	241893
#
# Disc length: 3403 seconds
#
# Revision: 1
# Processed by: cddbd v1.5.1PL0 Copyright (c) Steve Scherf et al.
# Submitted via: audiograbber 1.82.02
#
DISCID=d20d490f
DTITLE=Various Artist - Nashville Sound Vol 17
DYEAR=1900
DGENRE=Karaoke
TTITLE0=John Michael Montgomery - I can love you like that
TTITLE1=Vince Gill - Which bridge to cross ( which bridge to burn )
TTITLE2=Reba McEntire - The heart is a lonely hunter
TTITLE3=Brooks and Dunn - Refried Dreams
TTITLE4=Blackhawk - Down in flames
TTITLE5=Patty Loveless - You don't even know who I am
TTITLE6=Diamond Rio - Bubba Hyde
TTITLE7=John Berry - Standing on the edge of goodbye
TTITLE8=Allison Krauss - When you say nothing at all
TTITLE9=Alan Jackson - Song for life
TTITLE10=Randy Travis - The box
TTITLE11=Alabama - Between the two of them
TTITLE12=Joe Diffie - So help me girl
TTITLE13=Brooks and Dunn - Little Miss Honky Tonk
TTITLE14=Pam Tillis - I was blown away
EXTD=
EXTT0=
EXTT1=
EXTT2=
EXTT3=
EXTT4=
EXTT5=
EXTT6=
EXTT7=
EXTT8=
EXTT9=
EXTT10=
EXTT11=
EXTT12=
EXTT13=
EXTT14=
PLAYORDER=
